<svg id="canvas" width="758.310" height="90.006" viewBox="180.007 256.471 758.310 90.006" preserveAspectRatio="xMidYMid meet" class="h-full w-full max-w-4xl text-primary transition-opacity duration-300 opacity-100" xmlns="http://www.w3.org/2000/svg"><g id="canvas-strokes"><path d="M 183.75,306.05 C 184.23 305.43, 184.50 304.08, 185.40 302.69 C 186.31 301.31, 186.87 300.37, 188.27 299.11 C 189.67 297.86, 190.54 297.05, 192.41 296.43 C 194.29 295.81, 195.40 295.79, 197.66 296.01 C 199.92 296.24, 201.17 296.55, 203.72 297.54 C 206.26 298.53, 207.75 299.26, 210.37 300.96 C 213.00 302.66, 214.33 303.88, 216.84 306.03 C 219.34 308.17, 220.71 309.66, 222.90 311.68 C 225.09 313.70, 226.19 314.72, 227.79 316.11 C 229.39 317.51, 230.04 317.98, 230.89 318.65 C 231.73 319.32, 231.78 319.28, 232.03 319.48 C 232.27 319.67, 232.08 319.58, 232.12 319.61 C 232.16 319.64, 232.18 319.70, 232.24 319.63 C 232.30 319.55, 232.52 319.58, 232.41 319.23 C 232.29 318.87, 232.39 318.70, 231.68 317.84 C 230.97 316.99, 230.39 316.44, 228.86 314.95 C 227.34 313.46, 226.26 312.45, 224.06 310.42 C 221.86 308.39, 220.43 306.97, 217.88 304.81 C 215.32 302.64, 213.98 301.37, 211.28 299.58 C 208.57 297.80, 207.06 296.92, 204.37 295.87 C 201.68 294.81, 200.31 294.53, 197.82 294.31 C 195.32 294.10, 194.03 294.10, 191.88 294.78 C 189.73 295.47, 188.63 296.34, 187.05 297.76 C 185.47 299.17, 184.78 300.27, 183.97 301.88 C 183.16 303.48, 183.06 304.95, 183.01 305.78 C 182.97 306.62, 183.28 306.67, 183.75 306.05" style="stroke: black; fill: black;"/><path d="M 228.11,293.78 C 227.89 294.35, 227.86 295.05, 227.67 296.63 C 227.49 298.22, 227.34 299.24, 227.18 301.71 C 227.03 304.18, 227.18 305.93, 226.91 309.00 C 226.63 312.06, 226.47 313.83, 225.83 317.02 C 225.18 320.21, 224.70 321.99, 223.68 324.96 C 222.66 327.93, 222.06 329.40, 220.73 331.87 C 219.40 334.34, 218.38 335.44, 217.03 337.32 C 215.68 339.19, 214.93 340.17, 213.99 341.25 C 213.05 342.34, 212.73 342.74, 212.32 342.74 C 211.91 342.75, 211.96 342.06, 211.94 341.27 C 211.93 340.48, 212.17 339.84, 212.24 338.80 C 212.30 337.76, 212.45 336.66, 212.27 336.09 C 212.09 335.51, 211.71 335.41, 211.33 335.92 C 210.95 336.43, 210.51 337.51, 210.38 338.64 C 210.26 339.76, 210.33 340.59, 210.70 341.55 C 211.07 342.51, 211.40 343.32, 212.24 343.45 C 213.09 343.58, 213.71 343.25, 214.93 342.22 C 216.16 341.19, 216.91 340.22, 218.37 338.30 C 219.82 336.39, 220.85 335.22, 222.20 332.66 C 223.56 330.09, 224.12 328.53, 225.17 325.47 C 226.21 322.41, 226.71 320.62, 227.43 317.36 C 228.15 314.10, 228.42 312.30, 228.78 309.19 C 229.13 306.07, 229.12 304.30, 229.20 301.80 C 229.28 299.30, 229.25 298.28, 229.17 296.68 C 229.09 295.08, 229.00 294.37, 228.79 293.79 C 228.58 293.21, 228.33 293.21, 228.11 293.78" style="stroke: black; fill: black;"/><path d="M 240.82,315.11 C 240.33 315.37, 239.76 315.84, 238.96 316.86 C 238.15 317.87, 237.43 318.60, 236.77 320.18 C 236.11 321.76, 235.73 322.98, 235.65 324.75 C 235.57 326.51, 235.73 327.51, 236.38 328.99 C 237.03 330.46, 237.64 331.16, 238.89 332.13 C 240.14 333.09, 241.06 333.43, 242.64 333.81 C 244.22 334.19, 245.06 334.25, 246.80 334.03 C 248.53 333.81, 249.48 333.64, 251.31 332.71 C 253.14 331.79, 254.26 331.04, 255.94 329.41 C 257.61 327.77, 258.63 326.73, 259.68 324.54 C 260.73 322.35, 261.13 320.84, 261.20 318.45 C 261.27 316.06, 260.91 314.60, 260.04 312.58 C 259.18 310.57, 258.51 309.57, 256.87 308.37 C 255.23 307.16, 253.97 306.79, 251.85 306.54 C 249.73 306.28, 248.33 306.45, 246.27 307.09 C 244.22 307.73, 243.11 308.74, 241.57 309.73 C 240.04 310.73, 239.45 311.19, 238.59 312.06 C 237.74 312.93, 237.48 313.60, 237.30 314.08 C 237.12 314.55, 237.27 314.63, 237.69 314.42 C 238.11 314.21, 238.42 313.64, 239.38 313.01 C 240.34 312.38, 241.00 312.09, 242.49 311.25 C 243.98 310.42, 245.00 309.45, 246.83 308.83 C 248.67 308.22, 249.85 308.02, 251.68 308.17 C 253.51 308.32, 254.61 308.57, 255.98 309.58 C 257.36 310.58, 257.86 311.44, 258.55 313.20 C 259.25 314.96, 259.56 316.27, 259.46 318.38 C 259.36 320.49, 259.02 321.81, 258.05 323.75 C 257.09 325.68, 256.14 326.59, 254.63 328.06 C 253.11 329.54, 252.10 330.27, 250.49 331.13 C 248.88 332.00, 248.07 332.18, 246.58 332.39 C 245.08 332.61, 244.37 332.51, 243.02 332.21 C 241.67 331.91, 240.87 331.64, 239.84 330.87 C 238.80 330.11, 238.30 329.58, 237.85 328.38 C 237.39 327.18, 237.40 326.38, 237.56 324.89 C 237.73 323.40, 238.11 322.37, 238.66 320.94 C 239.21 319.51, 239.77 318.82, 240.32 317.74 C 240.87 316.66, 241.30 316.07, 241.40 315.54 C 241.50 315.01, 241.31 314.84, 240.82 315.11" style="stroke: black; fill: black;"/><path d="M 270.46,313.60 C 270.27 313.88, 270.20 314.15, 270.16 314.92 C 270.11 315.70, 270.04 316.27, 270.23 317.46 C 270.43 318.64, 270.59 319.44, 271.13 320.86 C 271.66 322.27, 271.96 323.10, 272.92 324.51 C 273.87 325.93, 274.51 326.82, 275.90 327.93 C 277.29 329.04, 278.12 329.52, 279.86 330.06 C 281.60 330.60, 282.79 330.63, 284.60 330.62 C 286.41 330.60, 287.35 330.42, 288.92 329.97 C 290.49 329.52, 291.12 329.18, 292.44 328.38 C 293.76 327.58, 294.53 327.22, 295.54 325.97 C 296.55 324.72, 297.04 323.71, 297.49 322.12 C 297.94 320.53, 297.87 319.45, 297.77 318.02 C 297.67 316.59, 297.42 315.74, 296.98 314.98 C 296.55 314.23, 295.93 314.06, 295.59 314.23 C 295.24 314.40, 295.04 314.91, 295.27 315.82 C 295.49 316.73, 295.86 317.56, 296.72 318.78 C 297.58 320.00, 298.32 320.88, 299.57 321.90 C 300.82 322.93, 301.71 323.27, 302.98 323.91 C 304.24 324.56, 305.22 325.02, 305.88 325.15 C 306.54 325.27, 306.66 325.05, 306.26 324.53 C 305.86 324.00, 304.94 323.35, 303.89 322.50 C 302.84 321.65, 302.09 321.30, 301.02 320.27 C 299.94 319.24, 299.42 318.39, 298.53 317.37 C 297.64 316.34, 297.13 315.73, 296.57 315.13 C 296.00 314.54, 295.85 314.34, 295.69 314.39 C 295.53 314.44, 295.71 314.64, 295.76 315.38 C 295.80 316.12, 295.93 316.83, 295.92 318.09 C 295.91 319.34, 296.06 320.29, 295.73 321.66 C 295.39 323.03, 295.06 323.87, 294.25 324.95 C 293.43 326.03, 292.79 326.36, 291.64 327.05 C 290.49 327.74, 289.90 328.03, 288.49 328.39 C 287.08 328.74, 286.21 328.84, 284.59 328.84 C 282.97 328.84, 281.89 328.85, 280.37 328.40 C 278.85 327.94, 278.18 327.55, 277.01 326.57 C 275.84 325.58, 275.31 324.76, 274.51 323.48 C 273.72 322.20, 273.49 321.44, 273.03 320.16 C 272.57 318.87, 272.50 318.13, 272.22 317.05 C 271.95 315.97, 271.89 315.44, 271.67 314.74 C 271.45 314.04, 271.35 313.77, 271.11 313.54 C 270.87 313.31, 270.65 313.33, 270.46 313.60" style="stroke: black; fill: black;"/><path d="M 314.82,324.83 C 314.47 325.11, 314.10 325.72, 313.87 326.44 C 313.65 327.17, 313.55 327.74, 313.70 328.44 C 313.85 329.14, 314.10 329.72, 314.63 329.93 C 315.15 330.14, 315.66 330.05, 316.32 329.49 C 316.98 328.93, 317.42 328.37, 317.92 327.15 C 318.42 325.94, 318.56 324.96, 318.82 323.42 C 319.08 321.87, 319.07 321.01, 319.21 319.41 C 319.36 317.81, 319.32 316.90, 319.55 315.41 C 319.79 313.91, 319.98 313.17, 320.40 311.94 C 320.82 310.71, 321.11 310.18, 321.66 309.26 C 322.21 308.35, 322.45 307.91, 323.14 307.36 C 323.82 306.82, 324.12 306.65, 325.08 306.53 C 326.04 306.41, 326.60 306.46, 327.94 306.78 C 329.28 307.09, 330.19 307.54, 331.79 308.10 C 333.38 308.65, 334.51 309.09, 335.92 309.55 C 337.34 310.02, 338.21 310.37, 338.86 310.42 C 339.51 310.48, 339.61 310.31, 339.16 309.82 C 338.71 309.33, 337.95 308.72, 336.62 307.97 C 335.29 307.22, 334.17 306.69, 332.50 306.08 C 330.83 305.48, 329.81 305.17, 328.27 304.96 C 326.74 304.75, 326.02 304.79, 324.82 305.05 C 323.62 305.31, 323.17 305.57, 322.27 306.25 C 321.38 306.93, 321.05 307.41, 320.37 308.44 C 319.68 309.46, 319.35 310.04, 318.84 311.37 C 318.32 312.70, 318.10 313.53, 317.79 315.10 C 317.49 316.66, 317.52 317.61, 317.31 319.20 C 317.10 320.79, 317.01 321.59, 316.73 323.04 C 316.46 324.49, 316.24 325.34, 315.93 326.45 C 315.61 327.57, 315.35 328.03, 315.15 328.61 C 314.95 329.18, 314.89 329.36, 314.94 329.33 C 314.98 329.29, 315.22 328.95, 315.38 328.44 C 315.53 327.94, 315.65 327.49, 315.71 326.81 C 315.76 326.12, 315.81 325.43, 315.64 325.04 C 315.46 324.64, 315.18 324.55, 314.82 324.83" style="stroke: black; fill: black;"/><path d="M 445.14,312.22 C 444.80 311.85, 444.16 311.49, 443.18 311.09 C 442.20 310.69, 441.72 310.44, 440.22 310.20 C 438.73 309.96, 437.57 309.80, 435.71 309.88 C 433.86 309.96, 432.83 310.24, 430.95 310.59 C 429.07 310.94, 427.85 311.15, 426.31 311.62 C 424.77 312.08, 423.92 312.38, 423.26 312.91 C 422.60 313.44, 422.55 313.81, 423.02 314.27 C 423.49 314.73, 424.11 314.95, 425.59 315.20 C 427.06 315.45, 428.20 315.38, 430.39 315.51 C 432.58 315.65, 434.05 315.72, 436.55 315.87 C 439.05 316.03, 440.59 316.11, 442.89 316.28 C 445.19 316.45, 446.32 316.49, 448.04 316.71 C 449.76 316.94, 450.57 317.15, 451.50 317.40 C 452.43 317.65, 452.68 317.62, 452.70 317.95 C 452.71 318.27, 452.43 318.48, 451.56 319.04 C 450.70 319.59, 449.93 319.93, 448.38 320.71 C 446.83 321.50, 445.70 322.13, 443.80 322.97 C 441.91 323.82, 440.65 324.32, 438.91 324.93 C 437.16 325.54, 436.27 325.73, 435.09 326.02 C 433.91 326.31, 433.42 326.42, 433.01 326.37 C 432.59 326.33, 433.08 325.89, 433.01 325.78 C 432.95 325.66, 432.75 325.54, 432.70 325.78 C 432.64 326.03, 432.22 326.65, 432.74 327.00 C 433.26 327.35, 433.94 327.57, 435.29 327.53 C 436.63 327.49, 437.60 327.30, 439.48 326.79 C 441.36 326.29, 442.70 325.85, 444.69 325.01 C 446.67 324.16, 447.85 323.54, 449.42 322.57 C 451.00 321.59, 451.75 321.07, 452.54 320.13 C 453.34 319.19, 453.53 318.63, 453.41 317.86 C 453.30 317.09, 452.97 316.85, 451.95 316.30 C 450.93 315.75, 450.10 315.48, 448.32 315.10 C 446.55 314.72, 445.39 314.67, 443.07 314.40 C 440.75 314.13, 439.23 313.97, 436.71 313.74 C 434.20 313.50, 432.70 313.29, 430.50 313.23 C 428.29 313.16, 427.13 313.31, 425.68 313.40 C 424.24 313.49, 423.68 313.60, 423.27 313.68 C 422.86 313.77, 422.95 313.87, 423.65 313.83 C 424.34 313.79, 425.21 313.73, 426.75 313.48 C 428.28 313.23, 429.50 312.89, 431.31 312.58 C 433.12 312.27, 434.08 312.02, 435.81 311.92 C 437.55 311.82, 438.60 311.96, 439.99 312.09 C 441.37 312.21, 441.78 312.36, 442.76 312.53 C 443.74 312.70, 444.39 313.00, 444.87 312.93 C 445.34 312.87, 445.48 312.58, 445.14 312.22" style="stroke: black; fill: black;"/><path d="M 454.09,316.23 C 454.40 316.40, 454.78 316.32, 455.47 316.38 C 456.16 316.45, 456.68 316.39, 457.52 316.54 C 458.36 316.70, 458.88 316.72, 459.68 317.14 C 460.47 317.57, 460.82 317.98, 461.49 318.66 C 462.16 319.33, 462.60 319.82, 463.02 320.53 C 463.43 321.23, 463.35 321.58, 463.56 322.18 C 463.76 322.78, 463.78 323.20, 464.05 323.54 C 464.32 323.88, 464.69 323.88, 464.91 323.88 C 465.12 323.88, 465.13 323.68, 465.14 323.53 C 465.14 323.39, 464.94 323.50, 464.93 323.17 C 464.91 322.83, 465.13 322.55, 465.05 321.85 C 464.97 321.16, 464.99 320.61, 464.55 319.71 C 464.10 318.81, 463.62 318.21, 462.83 317.37 C 462.04 316.52, 461.58 316.04, 460.58 315.49 C 459.58 314.93, 458.88 314.73, 457.83 314.59 C 456.78 314.44, 456.11 314.56, 455.33 314.75 C 454.55 314.94, 454.18 315.24, 453.93 315.54 C 453.68 315.84, 453.78 316.07, 454.09 316.23" style="stroke: black; fill: black;"/><path d="M 461.86,295.05 C 461.97 294.67, 461.93 294.01, 461.64 293.48 C 461.35 292.95, 460.80 292.52, 460.40 292.40 C 460.01 292.29, 459.74 292.52, 459.68 292.90 C 459.63 293.28, 459.86 293.81, 460.14 294.31 C 460.42 294.81, 460.74 295.24, 461.08 295.39 C 461.43 295.54, 461.75 295.44, 461.86 295.05" style="stroke: black; fill: black;"/><path d="M 496.77,306.82 C 496.46 306.62, 496.03 306.51, 495.25 306.55 C 494.47 306.59, 493.93 306.62, 492.86 307.02 C 491.79 307.41, 491.01 307.73, 489.89 308.53 C 488.77 309.34, 488.10 310.04, 487.25 311.03 C 486.41 312.02, 486.14 312.57, 485.66 313.49 C 485.17 314.42, 484.88 314.85, 484.82 315.65 C 484.76 316.46, 484.79 317.02, 485.34 317.50 C 485.90 317.97, 486.45 318.07, 487.61 318.05 C 488.77 318.03, 489.65 317.78, 491.13 317.41 C 492.61 317.03, 493.50 316.78, 495.00 316.19 C 496.50 315.60, 497.48 315.02, 498.63 314.47 C 499.78 313.92, 500.19 313.65, 500.76 313.43 C 501.33 313.21, 501.27 313.10, 501.47 313.35 C 501.66 313.61, 501.48 313.86, 501.73 314.70 C 501.97 315.54, 502.04 316.25, 502.70 317.56 C 503.36 318.86, 503.97 319.63, 505.04 321.21 C 506.11 322.79, 506.92 323.74, 508.03 325.46 C 509.15 327.18, 509.75 328.17, 510.61 329.80 C 511.46 331.42, 511.84 332.18, 512.30 333.59 C 512.76 334.99, 512.93 335.66, 512.91 336.83 C 512.88 337.99, 512.79 338.59, 512.16 339.40 C 511.52 340.22, 510.92 340.51, 509.74 340.91 C 508.56 341.31, 507.76 341.36, 506.27 341.41 C 504.77 341.46, 503.94 341.31, 502.26 341.18 C 500.59 341.04, 499.43 341.06, 497.88 340.73 C 496.33 340.40, 495.72 340.02, 494.50 339.54 C 493.28 339.05, 492.63 338.79, 491.77 338.32 C 490.90 337.85, 490.58 337.32, 490.18 337.17 C 489.78 337.02, 489.58 337.14, 489.75 337.58 C 489.92 338.03, 490.21 338.69, 491.02 339.39 C 491.84 340.08, 492.54 340.44, 493.83 341.06 C 495.12 341.69, 495.82 342.11, 497.48 342.51 C 499.13 342.91, 500.33 342.94, 502.11 343.08 C 503.89 343.22, 504.72 343.32, 506.37 343.20 C 508.01 343.07, 508.95 343.04, 510.34 342.45 C 511.72 341.87, 512.50 341.37, 513.30 340.26 C 514.10 339.15, 514.24 338.32, 514.34 336.90 C 514.44 335.47, 514.22 334.72, 513.80 333.14 C 513.37 331.57, 513.02 330.76, 512.21 329.01 C 511.41 327.26, 510.84 326.19, 509.76 324.39 C 508.68 322.59, 507.86 321.58, 506.81 320.02 C 505.75 318.45, 505.21 317.75, 504.48 316.56 C 503.74 315.37, 503.62 314.82, 503.13 314.05 C 502.64 313.29, 502.52 313.07, 502.01 312.72 C 501.49 312.37, 501.38 312.30, 500.57 312.30 C 499.77 312.31, 499.23 312.38, 497.97 312.75 C 496.71 313.12, 495.74 313.65, 494.25 314.17 C 492.77 314.68, 491.93 314.89, 490.55 315.32 C 489.17 315.74, 488.29 316.01, 487.36 316.29 C 486.42 316.57, 486.12 316.80, 485.86 316.73 C 485.59 316.66, 485.78 316.41, 486.01 315.93 C 486.25 315.46, 486.51 315.07, 487.04 314.35 C 487.57 313.63, 487.85 313.15, 488.67 312.34 C 489.49 311.52, 490.14 310.98, 491.13 310.28 C 492.13 309.58, 492.75 309.28, 493.64 308.83 C 494.53 308.38, 494.93 308.30, 495.57 308.04 C 496.21 307.78, 496.59 307.77, 496.83 307.52 C 497.08 307.28, 497.09 307.01, 496.77 306.82" style="stroke: black; fill: black;"/><path d="M 522.56,305.03 C 522.60 305.41, 522.94 305.69, 523.28 306.44 C 523.62 307.18, 523.89 307.67, 524.27 308.74 C 524.65 309.82, 524.96 310.46, 525.17 311.81 C 525.39 313.17, 525.27 314.33, 525.35 315.52 C 525.44 316.72, 525.51 317.43, 525.60 317.81 C 525.68 318.19, 525.56 318.07, 525.76 317.44 C 525.96 316.81, 526.06 316.17, 526.60 314.67 C 527.15 313.17, 527.52 311.88, 528.48 309.94 C 529.43 308.00, 530.13 306.63, 531.38 304.97 C 532.63 303.30, 533.42 302.59, 534.71 301.60 C 535.99 300.61, 536.67 300.27, 537.80 300.04 C 538.93 299.81, 539.36 299.90, 540.36 300.45 C 541.37 301.00, 541.95 301.49, 542.83 302.77 C 543.71 304.04, 544.16 304.99, 544.76 306.83 C 545.35 308.66, 545.46 309.90, 545.82 311.96 C 546.18 314.02, 546.30 315.26, 546.58 317.14 C 546.86 319.01, 546.93 320.02, 547.22 321.32 C 547.52 322.63, 547.72 322.98, 548.06 323.66 C 548.40 324.35, 548.58 324.49, 548.92 324.74 C 549.25 324.98, 549.55 324.94, 549.74 324.89 C 549.93 324.84, 549.93 324.63, 549.87 324.50 C 549.80 324.37, 549.57 324.48, 549.41 324.24 C 549.26 324.00, 549.23 323.92, 549.09 323.29 C 548.95 322.66, 548.86 322.35, 548.72 321.07 C 548.59 319.79, 548.60 318.79, 548.41 316.90 C 548.21 315.02, 548.10 313.77, 547.74 311.63 C 547.38 309.49, 547.30 308.18, 546.60 306.20 C 545.89 304.22, 545.34 303.13, 544.21 301.73 C 543.09 300.34, 542.29 299.82, 540.96 299.22 C 539.64 298.63, 539.02 298.55, 537.58 298.76 C 536.15 298.97, 535.35 299.30, 533.79 300.28 C 532.24 301.27, 531.30 301.98, 529.81 303.70 C 528.32 305.42, 527.37 306.80, 526.34 308.89 C 525.31 310.98, 524.96 312.43, 524.65 314.15 C 524.34 315.88, 524.47 316.71, 524.78 317.51 C 525.08 318.31, 525.66 318.53, 526.18 318.16 C 526.71 317.78, 527.16 316.99, 527.40 315.65 C 527.63 314.30, 527.62 312.98, 527.35 311.45 C 527.09 309.92, 526.63 309.17, 526.07 307.99 C 525.52 306.82, 525.18 306.27, 524.58 305.58 C 523.99 304.89, 523.49 304.66, 523.08 304.55 C 522.68 304.44, 522.52 304.66, 522.56 305.03" style="stroke: black; fill: black;"/><path d="M 572.88,306.25 C 572.59 305.93, 572.24 305.32, 571.20 305.23 C 570.16 305.13, 569.14 305.16, 567.68 305.77 C 566.22 306.37, 565.22 306.95, 563.89 308.23 C 562.56 309.51, 561.89 310.48, 561.02 312.17 C 560.15 313.85, 559.74 315.01, 559.54 316.64 C 559.34 318.27, 559.44 319.18, 560.01 320.32 C 560.59 321.46, 561.22 321.91, 562.40 322.35 C 563.57 322.79, 564.41 322.81, 565.90 322.54 C 567.39 322.28, 568.25 321.95, 569.85 321.02 C 571.45 320.09, 572.37 319.19, 573.89 317.89 C 575.40 316.59, 576.27 315.57, 577.43 314.53 C 578.60 313.48, 579.08 312.95, 579.73 312.67 C 580.38 312.39, 580.48 312.51, 580.69 313.12 C 580.90 313.74, 580.65 314.39, 580.79 315.75 C 580.93 317.11, 580.88 318.38, 581.39 319.93 C 581.91 321.48, 582.42 322.44, 583.37 323.49 C 584.32 324.53, 585.02 324.73, 586.13 325.15 C 587.24 325.57, 587.96 325.61, 588.92 325.58 C 589.88 325.55, 590.53 325.25, 590.91 325.00 C 591.29 324.76, 591.22 324.50, 590.83 324.33 C 590.45 324.17, 589.82 324.31, 588.99 324.19 C 588.15 324.08, 587.54 324.11, 586.67 323.76 C 585.81 323.40, 585.30 323.32, 584.67 322.43 C 584.03 321.53, 583.89 320.69, 583.49 319.28 C 583.09 317.87, 583.04 316.73, 582.66 315.39 C 582.27 314.05, 582.20 313.33, 581.57 312.58 C 580.93 311.83, 580.55 311.53, 579.50 311.63 C 578.45 311.73, 577.70 312.13, 576.30 313.06 C 574.91 313.99, 574.02 315.02, 572.53 316.29 C 571.03 317.55, 570.23 318.45, 568.83 319.38 C 567.44 320.31, 566.74 320.59, 565.54 320.93 C 564.33 321.27, 563.68 321.32, 562.81 321.09 C 561.94 320.86, 561.51 320.62, 561.19 319.79 C 560.87 318.96, 560.90 318.27, 561.21 316.93 C 561.52 315.58, 561.91 314.53, 562.73 313.09 C 563.54 311.64, 564.14 310.80, 565.30 309.71 C 566.46 308.62, 567.33 308.22, 568.52 307.63 C 569.71 307.03, 570.42 306.87, 571.25 306.72 C 572.07 306.57, 572.32 306.95, 572.65 306.86 C 572.98 306.77, 573.17 306.58, 572.88 306.25" style="stroke: black; fill: black;"/><path d="M 604.39,277.15 C 604.31 277.83, 604.44 278.68, 604.65 280.40 C 604.85 282.12, 604.93 283.30, 605.40 285.75 C 605.87 288.21, 606.33 289.79, 607.00 292.67 C 607.66 295.56, 607.96 297.25, 608.74 300.18 C 609.52 303.10, 610.04 304.72, 610.90 307.30 C 611.76 309.88, 612.25 311.10, 613.03 313.08 C 613.82 315.06, 614.27 316.06, 614.83 317.18 C 615.39 318.30, 615.53 318.36, 615.84 318.70 C 616.14 319.04, 616.29 319.00, 616.34 318.87 C 616.40 318.75, 616.26 318.16, 616.10 318.08 C 615.93 318.00, 615.50 318.29, 615.52 318.48 C 615.55 318.67, 616.02 319.04, 616.21 319.03 C 616.40 319.02, 616.50 318.90, 616.47 318.43 C 616.44 317.96, 616.43 317.87, 616.06 316.68 C 615.68 315.50, 615.27 314.49, 614.58 312.50 C 613.88 310.52, 613.40 309.31, 612.58 306.75 C 611.75 304.20, 611.20 302.63, 610.46 299.73 C 609.72 296.83, 609.52 295.12, 608.90 292.25 C 608.27 289.37, 607.90 287.77, 607.36 285.35 C 606.81 282.92, 606.63 281.77, 606.17 280.10 C 605.72 278.43, 605.44 277.59, 605.08 277.00 C 604.72 276.41, 604.48 276.47, 604.39 277.15" style="stroke: black; fill: black;"/><path d="M 601.77,303.96 C 601.96 303.68, 601.73 303.12, 601.92 302.63 C 602.11 302.14, 602.19 302.03, 602.70 301.50 C 603.21 300.96, 603.52 300.50, 604.46 299.93 C 605.41 299.37, 605.96 299.10, 607.42 298.66 C 608.87 298.22, 609.89 298.04, 611.73 297.73 C 613.57 297.43, 614.66 297.18, 616.62 297.13 C 618.57 297.08, 619.44 297.35, 621.51 297.47 C 623.58 297.59, 624.81 297.75, 626.96 297.74 C 629.12 297.73, 630.45 297.62, 632.27 297.42 C 634.08 297.23, 634.82 297.13, 636.04 296.76 C 637.27 296.38, 637.96 295.90, 638.39 295.55 C 638.82 295.21, 638.72 295.03, 638.20 295.02 C 637.68 295.02, 637.00 295.40, 635.79 295.52 C 634.57 295.65, 633.90 295.60, 632.14 295.67 C 630.37 295.74, 629.06 295.86, 626.96 295.87 C 624.85 295.88, 623.68 295.83, 621.61 295.71 C 619.54 295.60, 618.63 295.30, 616.59 295.31 C 614.55 295.32, 613.37 295.48, 611.42 295.77 C 609.47 296.07, 608.42 296.28, 606.83 296.80 C 605.24 297.32, 604.56 297.65, 603.47 298.37 C 602.39 299.10, 601.99 299.63, 601.40 300.42 C 600.81 301.20, 600.61 301.58, 600.52 302.31 C 600.43 303.03, 600.70 303.70, 600.95 304.03 C 601.20 304.37, 601.57 304.24, 601.77 303.96" style="stroke: black; fill: black;"/><path d="M 639.85,294.38 C 639.57 294.45, 639.34 294.55, 638.98 295.10 C 638.62 295.65, 638.27 295.90, 638.04 297.13 C 637.81 298.36, 637.73 299.34, 637.84 301.27 C 637.94 303.20, 638.09 304.50, 638.58 306.77 C 639.07 309.04, 639.41 310.51, 640.29 312.60 C 641.17 314.69, 641.78 315.87, 642.97 317.22 C 644.16 318.57, 644.87 318.99, 646.25 319.36 C 647.62 319.72, 648.41 319.56, 649.86 319.05 C 651.31 318.54, 652.04 318.03, 653.48 316.80 C 654.93 315.58, 655.70 314.68, 657.08 312.93 C 658.46 311.17, 659.29 310.01, 660.37 308.02 C 661.45 306.02, 661.86 304.76, 662.49 302.95 C 663.11 301.15, 663.21 300.18, 663.50 298.99 C 663.79 297.80, 663.87 297.35, 663.94 297.01 C 664.02 296.67, 663.87 296.72, 663.86 297.27 C 663.86 297.83, 663.77 298.43, 663.93 299.77 C 664.10 301.12, 664.36 302.17, 664.69 304.01 C 665.01 305.86, 665.16 307.16, 665.55 308.99 C 665.94 310.82, 666.27 311.82, 666.63 313.14 C 666.99 314.47, 667.06 314.83, 667.34 315.62 C 667.61 316.40, 667.78 316.80, 668.00 317.06 C 668.23 317.33, 668.39 317.28, 668.46 316.95 C 668.53 316.62, 668.40 316.23, 668.36 315.41 C 668.32 314.59, 668.39 314.20, 668.24 312.84 C 668.10 311.49, 667.89 310.48, 667.65 308.63 C 667.41 306.78, 667.39 305.44, 667.04 303.58 C 666.68 301.72, 666.34 300.66, 665.87 299.32 C 665.41 297.98, 665.20 297.45, 664.72 296.90 C 664.24 296.35, 663.98 296.26, 663.46 296.58 C 662.94 296.90, 662.64 297.36, 662.11 298.50 C 661.58 299.65, 661.50 300.61, 660.81 302.32 C 660.12 304.04, 659.72 305.20, 658.66 307.07 C 657.60 308.95, 656.79 310.03, 655.51 311.71 C 654.24 313.39, 653.52 314.27, 652.28 315.47 C 651.04 316.67, 650.47 317.18, 649.32 317.72 C 648.18 318.26, 647.60 318.46, 646.57 318.17 C 645.54 317.87, 645.07 317.51, 644.18 316.26 C 643.29 315.00, 642.81 313.88, 642.12 311.89 C 641.42 309.91, 641.12 308.49, 640.70 306.34 C 640.28 304.18, 640.18 302.92, 640.03 301.12 C 639.87 299.32, 639.90 298.44, 639.93 297.34 C 639.95 296.23, 640.06 296.11, 640.15 295.59 C 640.24 295.07, 640.43 294.98, 640.37 294.74 C 640.31 294.49, 640.12 294.31, 639.85 294.38" style="stroke: black; fill: black;"/><path d="M 683.77,298.10 C 683.75 298.45, 683.97 298.74, 684.25 299.37 C 684.52 300.00, 684.75 300.41, 685.15 301.25 C 685.54 302.08, 685.83 302.59, 686.21 303.56 C 686.60 304.52, 686.77 305.15, 687.08 306.07 C 687.40 306.99, 687.53 307.56, 687.78 308.16 C 688.03 308.77, 688.16 309.00, 688.33 309.10 C 688.50 309.20, 688.47 309.07, 688.64 308.67 C 688.80 308.26, 688.84 307.96, 689.16 307.07 C 689.47 306.18, 689.46 305.50, 690.22 304.23 C 690.98 302.97, 691.63 302.13, 692.96 300.75 C 694.29 299.36, 695.10 298.49, 696.85 297.32 C 698.61 296.15, 699.73 295.62, 701.73 294.92 C 703.74 294.21, 705.02 294.00, 706.88 293.81 C 708.73 293.62, 709.58 293.83, 711.01 293.96 C 712.45 294.09, 713.08 294.26, 714.07 294.46 C 715.06 294.66, 715.39 294.72, 715.96 294.96 C 716.53 295.19, 716.66 295.56, 716.93 295.63 C 717.20 295.69, 717.39 295.59, 717.30 295.28 C 717.21 294.96, 717.06 294.49, 716.48 294.06 C 715.90 293.62, 715.47 293.45, 714.41 293.13 C 713.36 292.80, 712.73 292.63, 711.19 292.43 C 709.65 292.22, 708.74 291.95, 706.73 292.09 C 704.72 292.24, 703.32 292.44, 701.14 293.16 C 698.95 293.89, 697.74 294.49, 695.81 295.72 C 693.88 296.95, 692.98 297.82, 691.50 299.31 C 690.01 300.80, 689.22 301.69, 688.39 303.16 C 687.55 304.62, 687.48 305.50, 687.31 306.63 C 687.15 307.76, 687.28 308.25, 687.55 308.79 C 687.82 309.33, 688.31 309.49, 688.66 309.32 C 689.01 309.16, 689.25 308.71, 689.31 307.95 C 689.37 307.20, 689.21 306.57, 688.97 305.54 C 688.74 304.51, 688.54 303.85, 688.13 302.80 C 687.71 301.75, 687.43 301.17, 686.91 300.30 C 686.40 299.44, 686.08 299.00, 685.56 298.47 C 685.04 297.94, 684.68 297.72, 684.32 297.65 C 683.96 297.58, 683.78 297.76, 683.77 298.10" style="stroke: black; fill: black;"/><path d="M 726.34,298.97 C 726.70 299.19, 727.22 299.39, 728.16 299.36 C 729.11 299.33, 729.76 299.16, 731.07 298.81 C 732.38 298.47, 733.36 298.20, 734.69 297.64 C 736.03 297.07, 736.67 296.69, 737.73 295.97 C 738.80 295.26, 739.39 294.87, 740.02 294.07 C 740.64 293.27, 740.87 292.87, 740.86 291.97 C 740.85 291.07, 740.72 290.34, 739.97 289.57 C 739.23 288.80, 738.56 288.37, 737.15 288.11 C 735.74 287.85, 734.79 287.87, 732.92 288.27 C 731.05 288.68, 729.85 289.18, 727.82 290.15 C 725.78 291.13, 724.57 291.84, 722.76 293.16 C 720.94 294.48, 719.90 295.25, 718.74 296.75 C 717.58 298.24, 717.10 299.17, 716.96 300.64 C 716.82 302.11, 716.91 302.84, 718.05 304.10 C 719.18 305.36, 720.61 306.14, 722.64 306.95 C 724.68 307.77, 726.17 307.92, 728.21 308.17 C 730.24 308.42, 731.87 308.36, 732.81 308.22 C 733.75 308.07, 733.77 307.84, 732.91 307.46 C 732.06 307.07, 730.47 306.79, 728.55 306.31 C 726.64 305.83, 725.25 305.69, 723.35 305.04 C 721.45 304.40, 720.09 303.92, 719.04 303.07 C 718.00 302.22, 717.95 301.85, 718.14 300.80 C 718.33 299.75, 718.85 299.02, 720.00 297.82 C 721.14 296.61, 722.12 295.91, 723.87 294.75 C 725.61 293.59, 726.80 292.92, 728.71 292.01 C 730.61 291.10, 731.74 290.62, 733.38 290.19 C 735.02 289.76, 735.79 289.76, 736.92 289.84 C 738.04 289.93, 738.45 290.19, 739.00 290.62 C 739.55 291.05, 739.67 291.47, 739.67 291.98 C 739.67 292.48, 739.57 292.64, 739.00 293.13 C 738.43 293.62, 737.84 293.92, 736.82 294.43 C 735.81 294.94, 735.19 295.22, 733.92 295.69 C 732.64 296.16, 731.65 296.36, 730.45 296.79 C 729.24 297.22, 728.71 297.54, 727.88 297.84 C 727.06 298.14, 726.63 298.05, 726.33 298.28 C 726.02 298.50, 725.97 298.76, 726.34 298.97" style="stroke: black; fill: black;"/><path d="M 808.62,259.87 C 808.61 260.07, 808.76 259.85, 808.89 260.46 C 809.02 261.07, 809.15 261.38, 809.28 262.93 C 809.41 264.48, 809.45 265.56, 809.55 268.19 C 809.64 270.83, 809.78 272.80, 809.75 276.10 C 809.72 279.40, 809.57 281.50, 809.40 284.71 C 809.24 287.92, 809.04 289.56, 808.91 292.15 C 808.79 294.73, 808.69 296.10, 808.79 297.63 C 808.89 299.16, 809.05 299.47, 809.43 299.80 C 809.82 300.12, 810.08 299.93, 810.74 299.24 C 811.40 298.55, 811.81 297.99, 812.74 296.35 C 813.67 294.71, 814.18 293.21, 815.39 291.03 C 816.60 288.85, 817.30 287.46, 818.77 285.46 C 820.24 283.45, 821.23 282.42, 822.75 281.02 C 824.28 279.61, 825.09 279.04, 826.38 278.43 C 827.67 277.82, 828.25 277.79, 829.21 277.97 C 830.17 278.16, 830.52 278.47, 831.18 279.36 C 831.84 280.26, 832.13 280.92, 832.52 282.44 C 832.91 283.97, 833.05 285.05, 833.11 286.97 C 833.18 288.90, 832.93 290.10, 832.83 292.07 C 832.73 294.04, 832.59 295.13, 832.62 296.83 C 832.64 298.52, 832.63 299.50, 832.97 300.56 C 833.30 301.62, 833.95 301.85, 834.29 302.11 C 834.63 302.37, 834.71 302.22, 834.68 301.87 C 834.64 301.52, 834.17 301.34, 834.11 300.34 C 834.05 299.34, 834.25 298.51, 834.38 296.88 C 834.51 295.25, 834.61 294.18, 834.76 292.19 C 834.90 290.19, 835.22 288.94, 835.12 286.89 C 835.02 284.84, 834.83 283.61, 834.26 281.92 C 833.68 280.24, 833.21 279.48, 832.24 278.46 C 831.28 277.44, 830.72 277.07, 829.44 276.81 C 828.16 276.54, 827.41 276.56, 825.84 277.14 C 824.28 277.72, 823.36 278.30, 821.63 279.71 C 819.89 281.13, 818.82 282.18, 817.17 284.22 C 815.51 286.25, 814.62 287.65, 813.36 289.89 C 812.09 292.14, 811.55 293.67, 810.84 295.44 C 810.14 297.21, 810.05 297.88, 809.83 298.72 C 809.61 299.55, 809.68 299.82, 809.73 299.61 C 809.78 299.40, 809.91 299.13, 810.09 297.66 C 810.28 296.19, 810.45 294.83, 810.66 292.26 C 810.86 289.69, 810.93 288.02, 811.12 284.80 C 811.31 281.58, 811.48 279.48, 811.61 276.15 C 811.74 272.81, 811.86 270.82, 811.78 268.12 C 811.70 265.42, 811.56 264.27, 811.20 262.63 C 810.83 261.00, 810.43 260.58, 809.98 259.95 C 809.52 259.32, 809.20 259.50, 808.93 259.48 C 808.65 259.47, 808.63 259.68, 808.62 259.87" style="stroke: black; fill: black;"/><path d="M 849.85,292.55 C 850.04 292.78, 850.29 292.88, 850.82 293.01 C 851.36 293.15, 851.70 293.23, 852.53 293.23 C 853.37 293.22, 853.98 293.19, 855.02 292.99 C 856.05 292.78, 856.58 292.56, 857.69 292.19 C 858.80 291.82, 859.63 291.61, 860.56 291.15 C 861.49 290.69, 861.86 290.38, 862.35 289.87 C 862.85 289.36, 863.06 289.05, 863.02 288.59 C 862.98 288.13, 862.62 287.84, 862.15 287.57 C 861.68 287.31, 861.39 287.34, 860.67 287.27 C 859.95 287.21, 859.55 287.18, 858.55 287.24 C 857.54 287.30, 856.89 287.35, 855.65 287.59 C 854.42 287.83, 853.61 287.93, 852.38 288.45 C 851.15 288.97, 850.53 289.34, 849.52 290.18 C 848.50 291.03, 847.89 291.60, 847.30 292.68 C 846.71 293.75, 846.51 294.40, 846.55 295.55 C 846.59 296.70, 846.83 297.34, 847.51 298.43 C 848.19 299.51, 848.53 300.10, 849.95 300.97 C 851.37 301.83, 852.61 302.20, 854.60 302.75 C 856.59 303.30, 857.64 303.41, 859.89 303.70 C 862.13 303.99, 863.48 304.11, 865.81 304.19 C 868.15 304.27, 869.42 304.29, 871.56 304.11 C 873.71 303.93, 874.83 303.75, 876.54 303.28 C 878.24 302.82, 878.97 302.43, 880.08 301.79 C 881.20 301.14, 881.63 300.76, 882.12 300.06 C 882.60 299.35, 882.59 298.77, 882.50 298.28 C 882.41 297.79, 882.01 297.50, 881.68 297.62 C 881.35 297.73, 881.02 298.20, 880.86 298.87 C 880.70 299.54, 880.67 300.22, 880.87 300.95 C 881.07 301.69, 881.43 302.17, 881.85 302.53 C 882.28 302.89, 882.60 302.97, 882.99 302.77 C 883.38 302.56, 883.62 302.41, 883.81 301.51 C 884.00 300.61, 884.03 299.81, 883.94 298.28 C 883.84 296.75, 883.61 295.66, 883.32 293.84 C 883.04 292.02, 882.83 290.90, 882.50 289.18 C 882.18 287.46, 881.79 286.55, 881.69 285.25 C 881.59 283.96, 881.53 283.44, 881.99 282.72 C 882.44 281.99, 882.77 281.87, 883.96 281.64 C 885.15 281.41, 885.98 281.49, 887.93 281.57 C 889.89 281.65, 891.36 281.72, 893.73 282.03 C 896.10 282.34, 897.60 282.80, 899.77 283.12 C 901.94 283.44, 903.02 283.50, 904.58 283.65 C 906.13 283.79, 906.94 283.91, 907.55 283.84 C 908.17 283.78, 908.21 283.61, 907.66 283.31 C 907.11 283.01, 906.32 282.76, 904.82 282.33 C 903.31 281.91, 902.29 281.69, 900.13 281.20 C 897.97 280.71, 896.45 280.20, 894.01 279.88 C 891.57 279.56, 890.03 279.52, 887.94 279.60 C 885.85 279.67, 884.96 279.76, 883.57 280.25 C 882.18 280.74, 881.69 281.06, 881.00 282.06 C 880.31 283.06, 880.20 283.78, 880.12 285.26 C 880.03 286.75, 880.37 287.70, 880.57 289.47 C 880.77 291.25, 880.91 292.34, 881.11 294.14 C 881.32 295.95, 881.41 297.03, 881.61 298.51 C 881.81 299.98, 881.93 300.70, 882.12 301.51 C 882.31 302.32, 882.35 302.42, 882.57 302.54 C 882.78 302.67, 882.99 302.57, 883.19 302.14 C 883.39 301.72, 883.64 301.12, 883.55 300.42 C 883.46 299.72, 883.06 299.16, 882.75 298.63 C 882.43 298.09, 882.20 297.83, 881.97 297.75 C 881.73 297.66, 881.73 297.88, 881.57 298.19 C 881.41 298.50, 881.59 298.84, 881.16 299.31 C 880.73 299.78, 880.42 300.06, 879.42 300.54 C 878.42 301.02, 877.74 301.35, 876.14 301.71 C 874.55 302.07, 873.48 302.21, 871.43 302.33 C 869.38 302.46, 868.15 302.44, 865.89 302.33 C 863.63 302.22, 862.30 302.09, 860.14 301.79 C 857.98 301.49, 856.97 301.32, 855.11 300.84 C 853.25 300.36, 852.11 300.04, 850.84 299.39 C 849.56 298.74, 849.31 298.37, 848.74 297.60 C 848.18 296.82, 848.03 296.33, 848.01 295.51 C 848.00 294.69, 848.16 294.29, 848.68 293.50 C 849.20 292.71, 849.74 292.22, 850.62 291.56 C 851.49 290.90, 851.99 290.58, 853.07 290.19 C 854.15 289.80, 854.89 289.80, 856.02 289.61 C 857.15 289.43, 857.78 289.38, 858.72 289.27 C 859.66 289.17, 860.08 289.17, 860.71 289.07 C 861.35 288.97, 861.57 288.87, 861.91 288.77 C 862.26 288.67, 862.49 288.57, 862.43 288.56 C 862.37 288.55, 862.12 288.57, 861.60 288.73 C 861.08 288.90, 860.73 289.08, 859.82 289.37 C 858.92 289.67, 858.10 289.89, 857.05 290.22 C 856.01 290.54, 855.53 290.80, 854.60 291.01 C 853.67 291.22, 853.15 291.15, 852.40 291.25 C 851.65 291.35, 851.35 291.39, 850.85 291.51 C 850.34 291.63, 850.09 291.65, 849.89 291.86 C 849.69 292.06, 849.66 292.32, 849.85 292.55" style="stroke: black; fill: black;"/><path d="M 913.67,295.22 C 914.05 295.15, 914.14 294.86, 915.12 294.40 C 916.10 293.95, 917.02 293.74, 918.58 292.95 C 920.13 292.17, 921.23 291.53, 922.90 290.49 C 924.56 289.44, 925.62 288.79, 926.90 287.72 C 928.18 286.64, 928.64 286.18, 929.30 285.12 C 929.97 284.06, 930.25 283.40, 930.22 282.42 C 930.18 281.43, 929.95 280.82, 929.12 280.22 C 928.29 279.61, 927.54 279.40, 926.07 279.40 C 924.60 279.40, 923.60 279.64, 921.78 280.20 C 919.95 280.76, 918.77 281.16, 916.93 282.20 C 915.08 283.23, 913.81 283.99, 912.55 285.37 C 911.30 286.75, 910.83 287.70, 910.64 289.10 C 910.46 290.51, 910.86 291.16, 911.65 292.41 C 912.43 293.67, 912.84 294.30, 914.58 295.37 C 916.32 296.45, 917.94 296.98, 920.33 297.78 C 922.73 298.58, 924.37 298.92, 926.56 299.38 C 928.75 299.85, 929.72 299.89, 931.26 300.09 C 932.81 300.30, 933.46 300.42, 934.27 300.39 C 935.07 300.36, 935.16 300.16, 935.29 299.95 C 935.42 299.74, 935.04 299.42, 934.92 299.35 C 934.80 299.28, 934.65 299.50, 934.69 299.59 C 934.74 299.67, 935.20 299.82, 935.14 299.77 C 935.09 299.72, 935.13 299.59, 934.41 299.34 C 933.70 299.10, 933.04 298.93, 931.56 298.55 C 930.08 298.18, 929.13 298.04, 927.02 297.46 C 924.92 296.88, 923.34 296.41, 921.02 295.67 C 918.71 294.93, 917.12 294.59, 915.45 293.79 C 913.79 292.99, 913.42 292.57, 912.71 291.67 C 911.99 290.78, 911.67 290.32, 911.89 289.31 C 912.11 288.30, 912.59 287.68, 913.79 286.63 C 915.00 285.57, 916.19 284.92, 917.92 284.03 C 919.64 283.14, 920.76 282.74, 922.42 282.17 C 924.07 281.60, 924.97 281.35, 926.19 281.17 C 927.40 280.98, 927.92 281.01, 928.50 281.26 C 929.08 281.50, 929.16 281.78, 929.09 282.39 C 929.03 283.00, 928.82 283.53, 928.17 284.31 C 927.52 285.09, 927.12 285.44, 925.83 286.29 C 924.55 287.14, 923.41 287.62, 921.75 288.57 C 920.08 289.51, 919.01 290.13, 917.51 291.04 C 916.02 291.95, 915.14 292.37, 914.28 293.12 C 913.42 293.87, 913.35 294.36, 913.23 294.78 C 913.11 295.20, 913.29 295.30, 913.67 295.22" style="stroke: black; fill: black;"/></g></svg>